<?xml version="1.0" encoding="utf-8" standalone="no"?>
<!DOCTYPE svg PUBLIC "-//W3C//DTD SVG 1.1//EN"
  "http://www.w3.org/Graphics/SVG/1.1/DTD/svg11.dtd">
<!-- Created with matplotlib (http://matplotlib.org/) -->
<svg height="345pt" version="1.1" viewBox="0 0 460 345" width="460pt" xmlns="http://www.w3.org/2000/svg" xmlns:xlink="http://www.w3.org/1999/xlink">
 <defs>
  <style type="text/css">
*{stroke-linecap:butt;stroke-linejoin:round;}
  </style>
 </defs>
 <g id="figure_1">
  <g id="patch_1">
   <path d="M 0 345.6 
L 460.8 345.6 
L 460.8 0 
L 0 0 
z
" style="fill:#ffffff;"/>
  </g>
  <g id="axes_1">
   <g id="patch_2">
    <path d="M 57.26 285.500464 
L 447.48 285.500464 
L 447.48 13.32 
L 57.26 13.32 
z
" style="fill:#ffffff;"/>
   </g>
   <g id="line2d_1">
    <path clip-path="url(#p696a06960a)" d="M 74.997273 273.128625 
L 85.900832 273.128625 
L 86.215279 254.57705 
L 86.235698 254.741953 
L 88.338819 254.741953 
L 88.951378 255.15421 
L 89.208653 255.15421 
L 90.119325 255.566467 
L 90.862564 255.566467 
L 90.980992 255.813821 
L 91.140257 255.813821 
L 91.446537 256.143627 
L 92.112185 256.143627 
L 92.144855 256.390981 
L 92.414381 256.390981 
L 92.528725 256.555884 
L 92.712493 256.555884 
L 93.161704 256.88569 
L 94.317399 256.88569 
L 94.533837 257.050593 
L 96.636958 257.050593 
L 96.698214 257.215496 
L 97.604802 257.545302 
L 97.653807 257.710205 
L 98.801335 257.710205 
L 99.156619 257.875107 
L 99.381224 257.875107 
L 99.916193 239.323532 
L 100.381738 239.488435 
L 101.480262 239.488435 
L 101.77429 239.653338 
L 102.174496 220.3597 
L 102.399101 220.607054 
L 104.906511 220.93686 
L 105.572159 221.101763 
L 105.621164 221.349117 
L 106.915706 222.09118 
L 109.451702 222.668341 
L 109.49254 222.833243 
L 109.949917 223.080598 
L 110.194941 223.327952 
L 110.733994 223.575306 
L 112.935124 223.905112 
L 113.351665 224.152467 
L 113.404753 224.317369 
L 113.715117 224.482272 
L 114.397099 225.554141 
L 115.81007 225.966398 
L 116.777914 226.296204 
L 117.182203 226.461107 
L 118.154131 226.790913 
L 118.562504 226.955816 
L 119.963223 226.955816 
L 119.999977 227.120719 
L 120.571699 227.20317 
L 120.902481 227.368073 
L 121.809069 227.450524 
L 122.323619 228.110136 
L 123.115863 228.110136 
L 124.929039 228.852199 
L 126.946402 229.017102 
L 127.06483 229.182005 
L 127.844822 229.182005 
L 129.421142 229.429359 
L 129.466063 229.594262 
L 130.188883 229.676713 
L 130.368567 229.841616 
L 130.768773 229.841616 
L 130.944373 230.006519 
L 131.90405 230.253873 
L 132.45127 230.748582 
L 134.366539 231.078388 
L 136.927038 231.655548 
L 139.536541 231.985354 
L 140.210357 232.150257 
L 140.234859 232.31516 
L 145.413029 232.809868 
L 147.610075 233.634383 
L 147.65908 233.716834 
L 151.367107 233.716834 
L 151.43653 233.881737 
L 152.833166 234.04664 
L 162.65862 234.458897 
L 163.242594 234.6238 
L 165.553985 234.6238 
L 165.586655 234.788703 
L 166.211465 234.953606 
L 169.029239 235.283412 
L 170.564721 235.530766 
L 170.695401 235.613217 
L 172.324809 235.860572 
L 172.439153 235.943023 
L 174.615782 236.35528 
L 175.097662 236.602635 
L 182.019584 237.097343 
L 182.591306 237.179795 
L 189.280456 237.592052 
L 193.307014 238.086761 
L 198.084978 238.416566 
L 198.178903 238.499018 
L 199.269259 238.663921 
L 203.953298 238.663921 
L 204.410675 238.828824 
L 206.015581 239.076178 
L 208.47807 239.405984 
L 213.243783 239.488435 
L 213.684826 239.653338 
L 214.816019 239.818241 
L 215.579677 239.818241 
L 215.828784 239.983144 
L 216.102394 202.632639 
L 216.588358 202.879994 
L 227.148884 202.962445 
L 234.181067 203.2098 
L 235.932987 203.457154 
L 235.986075 203.539605 
L 238.228043 203.704508 
L 248.747732 204.034314 
L 249.79725 204.116765 
L 250.348554 204.281668 
L 251.786027 204.36412 
L 252.12906 204.529023 
L 258.152562 204.611474 
L 259.193913 206.0956 
L 267.471633 206.507857 
L 278.146504 206.590309 
L 280.339467 206.755212 
L 290.148586 207.002566 
L 299.332895 207.085017 
L 299.969957 207.167469 
L 306.957218 207.332372 
L 320.837817 207.991983 
L 325.342171 208.074435 
L 327.886335 208.239338 
L 336.119134 208.321789 
L 336.788866 208.486692 
L 340.970605 208.898949 
L 348.227393 209.146304 
L 348.370324 210.383075 
L 348.623515 210.465527 
L 352.290705 210.712881 
L 355.574024 210.712881 
L 355.880303 182.10223 
L 357.309609 182.184681 
L 360.6501 182.267133 
L 361.078892 182.432036 
L 373.509766 182.514487 
L 382.591981 182.761841 
L 383.273964 182.844293 
L 387.962086 183.174099 
L 403.741619 183.25655 
L 403.774288 183.339001 
L 404.550197 183.421453 
L 416.482856 183.503904 
L 417.838654 183.751259 
L 417.883575 144.669274 
L 419.410891 144.669274 
L 420.754438 145.246434 
L 425.034187 145.246434 
L 429.742727 146.977914 
L 429.742727 146.977914 
" style="fill:none;stroke:#9467bd;stroke-linecap:square;stroke-width:1.5;"/>
   </g>
   <g id="matplotlib.axis_1">
    <g id="xtick_1">
     <g id="line2d_2">
      <defs>
       <path d="M 0 0 
L 0 3.5 
" id="m72dab395ed" style="stroke:#000000;stroke-width:0.8;"/>
      </defs>
      <g>
       <use style="stroke:#000000;stroke-width:0.8;" x="94.87687" xlink:href="#m72dab395ed" y="285.500464"/>
      </g>
     </g>
     <g id="text_1">
      <!-- Nov 30 15:00 -->
      <defs>
       <path d="M 9.8125 72.90625 
L 23.09375 72.90625 
L 55.421875 11.921875 
L 55.421875 72.90625 
L 64.984375 72.90625 
L 64.984375 0 
L 51.703125 0 
L 19.390625 60.984375 
L 19.390625 0 
L 9.8125 0 
z
" id="DejaVuSans-4e"/>
       <path d="M 30.609375 48.390625 
Q 23.390625 48.390625 19.1875 42.75 
Q 14.984375 37.109375 14.984375 27.296875 
Q 14.984375 17.484375 19.15625 11.84375 
Q 23.34375 6.203125 30.609375 6.203125 
Q 37.796875 6.203125 41.984375 11.859375 
Q 46.1875 17.53125 46.1875 27.296875 
Q 46.1875 37.015625 41.984375 42.703125 
Q 37.796875 48.390625 30.609375 48.390625 
z
M 30.609375 56 
Q 42.328125 56 49.015625 48.375 
Q 55.71875 40.765625 55.71875 27.296875 
Q 55.71875 13.875 49.015625 6.21875 
Q 42.328125 -1.421875 30.609375 -1.421875 
Q 18.84375 -1.421875 12.171875 6.21875 
Q 5.515625 13.875 5.515625 27.296875 
Q 5.515625 40.765625 12.171875 48.375 
Q 18.84375 56 30.609375 56 
z
" id="DejaVuSans-6f"/>
       <path d="M 2.984375 54.6875 
L 12.5 54.6875 
L 29.59375 8.796875 
L 46.6875 54.6875 
L 56.203125 54.6875 
L 35.6875 0 
L 23.484375 0 
z
" id="DejaVuSans-76"/>
       <path id="DejaVuSans-20"/>
       <path d="M 40.578125 39.3125 
Q 47.65625 37.796875 51.625 33 
Q 55.609375 28.21875 55.609375 21.1875 
Q 55.609375 10.40625 48.1875 4.484375 
Q 40.765625 -1.421875 27.09375 -1.421875 
Q 22.515625 -1.421875 17.65625 -0.515625 
Q 12.796875 0.390625 7.625 2.203125 
L 7.625 11.71875 
Q 11.71875 9.328125 16.59375 8.109375 
Q 21.484375 6.890625 26.8125 6.890625 
Q 36.078125 6.890625 40.9375 10.546875 
Q 45.796875 14.203125 45.796875 21.1875 
Q 45.796875 27.640625 41.28125 31.265625 
Q 36.765625 34.90625 28.71875 34.90625 
L 20.21875 34.90625 
L 20.21875 43.015625 
L 29.109375 43.015625 
Q 36.375 43.015625 40.234375 45.921875 
Q 44.09375 48.828125 44.09375 54.296875 
Q 44.09375 59.90625 40.109375 62.90625 
Q 36.140625 65.921875 28.71875 65.921875 
Q 24.65625 65.921875 20.015625 65.03125 
Q 15.375 64.15625 9.8125 62.3125 
L 9.8125 71.09375 
Q 15.4375 72.65625 20.34375 73.4375 
Q 25.25 74.21875 29.59375 74.21875 
Q 40.828125 74.21875 47.359375 69.109375 
Q 53.90625 64.015625 53.90625 55.328125 
Q 53.90625 49.265625 50.4375 45.09375 
Q 46.96875 40.921875 40.578125 39.3125 
z
" id="DejaVuSans-33"/>
       <path d="M 31.78125 66.40625 
Q 24.171875 66.40625 20.328125 58.90625 
Q 16.5 51.421875 16.5 36.375 
Q 16.5 21.390625 20.328125 13.890625 
Q 24.171875 6.390625 31.78125 6.390625 
Q 39.453125 6.390625 43.28125 13.890625 
Q 47.125 21.390625 47.125 36.375 
Q 47.125 51.421875 43.28125 58.90625 
Q 39.453125 66.40625 31.78125 66.40625 
z
M 31.78125 74.21875 
Q 44.046875 74.21875 50.515625 64.515625 
Q 56.984375 54.828125 56.984375 36.375 
Q 56.984375 17.96875 50.515625 8.265625 
Q 44.046875 -1.421875 31.78125 -1.421875 
Q 19.53125 -1.421875 13.0625 8.265625 
Q 6.59375 17.96875 6.59375 36.375 
Q 6.59375 54.828125 13.0625 64.515625 
Q 19.53125 74.21875 31.78125 74.21875 
z
" id="DejaVuSans-30"/>
       <path d="M 12.40625 8.296875 
L 28.515625 8.296875 
L 28.515625 63.921875 
L 10.984375 60.40625 
L 10.984375 69.390625 
L 28.421875 72.90625 
L 38.28125 72.90625 
L 38.28125 8.296875 
L 54.390625 8.296875 
L 54.390625 0 
L 12.40625 0 
z
" id="DejaVuSans-31"/>
       <path d="M 10.796875 72.90625 
L 49.515625 72.90625 
L 49.515625 64.59375 
L 19.828125 64.59375 
L 19.828125 46.734375 
Q 21.96875 47.46875 24.109375 47.828125 
Q 26.265625 48.1875 28.421875 48.1875 
Q 40.625 48.1875 47.75 41.5 
Q 54.890625 34.8125 54.890625 23.390625 
Q 54.890625 11.625 47.5625 5.09375 
Q 40.234375 -1.421875 26.90625 -1.421875 
Q 22.3125 -1.421875 17.546875 -0.640625 
Q 12.796875 0.140625 7.71875 1.703125 
L 7.71875 11.625 
Q 12.109375 9.234375 16.796875 8.0625 
Q 21.484375 6.890625 26.703125 6.890625 
Q 35.15625 6.890625 40.078125 11.328125 
Q 45.015625 15.765625 45.015625 23.390625 
Q 45.015625 31 40.078125 35.4375 
Q 35.15625 39.890625 26.703125 39.890625 
Q 22.75 39.890625 18.8125 39.015625 
Q 14.890625 38.140625 10.796875 36.28125 
z
" id="DejaVuSans-35"/>
       <path d="M 11.71875 12.40625 
L 22.015625 12.40625 
L 22.015625 0 
L 11.71875 0 
z
M 11.71875 51.703125 
L 22.015625 51.703125 
L 22.015625 39.3125 
L 11.71875 39.3125 
z
" id="DejaVuSans-3a"/>
      </defs>
      <g transform="translate(35.450676 332.790279)rotate(-30)scale(0.1 -0.1)">
       <use xlink:href="#DejaVuSans-4e"/>
       <use x="74.804688" xlink:href="#DejaVuSans-6f"/>
       <use x="135.986328" xlink:href="#DejaVuSans-76"/>
       <use x="195.166016" xlink:href="#DejaVuSans-20"/>
       <use x="226.953125" xlink:href="#DejaVuSans-33"/>
       <use x="290.576172" xlink:href="#DejaVuSans-30"/>
       <use x="354.199219" xlink:href="#DejaVuSans-20"/>
       <use x="385.986328" xlink:href="#DejaVuSans-31"/>
       <use x="449.609375" xlink:href="#DejaVuSans-35"/>
       <use x="513.232422" xlink:href="#DejaVuSans-3a"/>
       <use x="546.923828" xlink:href="#DejaVuSans-30"/>
       <use x="610.546875" xlink:href="#DejaVuSans-30"/>
      </g>
     </g>
    </g>
    <g id="xtick_2">
     <g id="line2d_3">
      <g>
       <use style="stroke:#000000;stroke-width:0.8;" x="138.981154" xlink:href="#m72dab395ed" y="285.500464"/>
      </g>
     </g>
     <g id="text_2">
      <!-- Nov 30 18:00 -->
      <defs>
       <path d="M 31.78125 34.625 
Q 24.75 34.625 20.71875 30.859375 
Q 16.703125 27.09375 16.703125 20.515625 
Q 16.703125 13.921875 20.71875 10.15625 
Q 24.75 6.390625 31.78125 6.390625 
Q 38.8125 6.390625 42.859375 10.171875 
Q 46.921875 13.96875 46.921875 20.515625 
Q 46.921875 27.09375 42.890625 30.859375 
Q 38.875 34.625 31.78125 34.625 
z
M 21.921875 38.8125 
Q 15.578125 40.375 12.03125 44.71875 
Q 8.5 49.078125 8.5 55.328125 
Q 8.5 64.0625 14.71875 69.140625 
Q 20.953125 74.21875 31.78125 74.21875 
Q 42.671875 74.21875 48.875 69.140625 
Q 55.078125 64.0625 55.078125 55.328125 
Q 55.078125 49.078125 51.53125 44.71875 
Q 48 40.375 41.703125 38.8125 
Q 48.828125 37.15625 52.796875 32.3125 
Q 56.78125 27.484375 56.78125 20.515625 
Q 56.78125 9.90625 50.3125 4.234375 
Q 43.84375 -1.421875 31.78125 -1.421875 
Q 19.734375 -1.421875 13.25 4.234375 
Q 6.78125 9.90625 6.78125 20.515625 
Q 6.78125 27.484375 10.78125 32.3125 
Q 14.796875 37.15625 21.921875 38.8125 
z
M 18.3125 54.390625 
Q 18.3125 48.734375 21.84375 45.5625 
Q 25.390625 42.390625 31.78125 42.390625 
Q 38.140625 42.390625 41.71875 45.5625 
Q 45.3125 48.734375 45.3125 54.390625 
Q 45.3125 60.0625 41.71875 63.234375 
Q 38.140625 66.40625 31.78125 66.40625 
Q 25.390625 66.40625 21.84375 63.234375 
Q 18.3125 60.0625 18.3125 54.390625 
z
" id="DejaVuSans-38"/>
      </defs>
      <g transform="translate(79.55496 332.790279)rotate(-30)scale(0.1 -0.1)">
       <use xlink:href="#DejaVuSans-4e"/>
       <use x="74.804688" xlink:href="#DejaVuSans-6f"/>
       <use x="135.986328" xlink:href="#DejaVuSans-76"/>
       <use x="195.166016" xlink:href="#DejaVuSans-20"/>
       <use x="226.953125" xlink:href="#DejaVuSans-33"/>
       <use x="290.576172" xlink:href="#DejaVuSans-30"/>
       <use x="354.199219" xlink:href="#DejaVuSans-20"/>
       <use x="385.986328" xlink:href="#DejaVuSans-31"/>
       <use x="449.609375" xlink:href="#DejaVuSans-38"/>
       <use x="513.232422" xlink:href="#DejaVuSans-3a"/>
       <use x="546.923828" xlink:href="#DejaVuSans-30"/>
       <use x="610.546875" xlink:href="#DejaVuSans-30"/>
      </g>
     </g>
    </g>
    <g id="xtick_3">
     <g id="line2d_4">
      <g>
       <use style="stroke:#000000;stroke-width:0.8;" x="183.085437" xlink:href="#m72dab395ed" y="285.500464"/>
      </g>
     </g>
     <g id="text_3">
      <!-- Nov 30 21:00 -->
      <defs>
       <path d="M 19.1875 8.296875 
L 53.609375 8.296875 
L 53.609375 0 
L 7.328125 0 
L 7.328125 8.296875 
Q 12.9375 14.109375 22.625 23.890625 
Q 32.328125 33.6875 34.8125 36.53125 
Q 39.546875 41.84375 41.421875 45.53125 
Q 43.3125 49.21875 43.3125 52.78125 
Q 43.3125 58.59375 39.234375 62.25 
Q 35.15625 65.921875 28.609375 65.921875 
Q 23.96875 65.921875 18.8125 64.3125 
Q 13.671875 62.703125 7.8125 59.421875 
L 7.8125 69.390625 
Q 13.765625 71.78125 18.9375 73 
Q 24.125 74.21875 28.421875 74.21875 
Q 39.75 74.21875 46.484375 68.546875 
Q 53.21875 62.890625 53.21875 53.421875 
Q 53.21875 48.921875 51.53125 44.890625 
Q 49.859375 40.875 45.40625 35.40625 
Q 44.1875 33.984375 37.640625 27.21875 
Q 31.109375 20.453125 19.1875 8.296875 
z
" id="DejaVuSans-32"/>
      </defs>
      <g transform="translate(123.659244 332.790279)rotate(-30)scale(0.1 -0.1)">
       <use xlink:href="#DejaVuSans-4e"/>
       <use x="74.804688" xlink:href="#DejaVuSans-6f"/>
       <use x="135.986328" xlink:href="#DejaVuSans-76"/>
       <use x="195.166016" xlink:href="#DejaVuSans-20"/>
       <use x="226.953125" xlink:href="#DejaVuSans-33"/>
       <use x="290.576172" xlink:href="#DejaVuSans-30"/>
       <use x="354.199219" xlink:href="#DejaVuSans-20"/>
       <use x="385.986328" xlink:href="#DejaVuSans-32"/>
       <use x="449.609375" xlink:href="#DejaVuSans-31"/>
       <use x="513.232422" xlink:href="#DejaVuSans-3a"/>
       <use x="546.923828" xlink:href="#DejaVuSans-30"/>
       <use x="610.546875" xlink:href="#DejaVuSans-30"/>
      </g>
     </g>
    </g>
    <g id="xtick_4">
     <g id="line2d_5">
      <g>
       <use style="stroke:#000000;stroke-width:0.8;" x="227.189721" xlink:href="#m72dab395ed" y="285.500464"/>
      </g>
     </g>
     <g id="text_4">
      <!-- Dec 01 00:00 -->
      <defs>
       <path d="M 19.671875 64.796875 
L 19.671875 8.109375 
L 31.59375 8.109375 
Q 46.6875 8.109375 53.6875 14.9375 
Q 60.6875 21.78125 60.6875 36.53125 
Q 60.6875 51.171875 53.6875 57.984375 
Q 46.6875 64.796875 31.59375 64.796875 
z
M 9.8125 72.90625 
L 30.078125 72.90625 
Q 51.265625 72.90625 61.171875 64.09375 
Q 71.09375 55.28125 71.09375 36.53125 
Q 71.09375 17.671875 61.125 8.828125 
Q 51.171875 0 30.078125 0 
L 9.8125 0 
z
" id="DejaVuSans-44"/>
       <path d="M 56.203125 29.59375 
L 56.203125 25.203125 
L 14.890625 25.203125 
Q 15.484375 15.921875 20.484375 11.0625 
Q 25.484375 6.203125 34.421875 6.203125 
Q 39.59375 6.203125 44.453125 7.46875 
Q 49.3125 8.734375 54.109375 11.28125 
L 54.109375 2.78125 
Q 49.265625 0.734375 44.1875 -0.34375 
Q 39.109375 -1.421875 33.890625 -1.421875 
Q 20.796875 -1.421875 13.15625 6.1875 
Q 5.515625 13.8125 5.515625 26.8125 
Q 5.515625 40.234375 12.765625 48.109375 
Q 20.015625 56 32.328125 56 
Q 43.359375 56 49.78125 48.890625 
Q 56.203125 41.796875 56.203125 29.59375 
z
M 47.21875 32.234375 
Q 47.125 39.59375 43.09375 43.984375 
Q 39.0625 48.390625 32.421875 48.390625 
Q 24.90625 48.390625 20.390625 44.140625 
Q 15.875 39.890625 15.1875 32.171875 
z
" id="DejaVuSans-65"/>
       <path d="M 48.78125 52.59375 
L 48.78125 44.1875 
Q 44.96875 46.296875 41.140625 47.34375 
Q 37.3125 48.390625 33.40625 48.390625 
Q 24.65625 48.390625 19.8125 42.84375 
Q 14.984375 37.3125 14.984375 27.296875 
Q 14.984375 17.28125 19.8125 11.734375 
Q 24.65625 6.203125 33.40625 6.203125 
Q 37.3125 6.203125 41.140625 7.25 
Q 44.96875 8.296875 48.78125 10.40625 
L 48.78125 2.09375 
Q 45.015625 0.34375 40.984375 -0.53125 
Q 36.96875 -1.421875 32.421875 -1.421875 
Q 20.0625 -1.421875 12.78125 6.34375 
Q 5.515625 14.109375 5.515625 27.296875 
Q 5.515625 40.671875 12.859375 48.328125 
Q 20.21875 56 33.015625 56 
Q 37.15625 56 41.109375 55.140625 
Q 45.0625 54.296875 48.78125 52.59375 
z
" id="DejaVuSans-63"/>
      </defs>
      <g transform="translate(167.908316 332.706685)rotate(-30)scale(0.1 -0.1)">
       <use xlink:href="#DejaVuSans-44"/>
       <use x="77.001953" xlink:href="#DejaVuSans-65"/>
       <use x="138.525391" xlink:href="#DejaVuSans-63"/>
       <use x="193.505859" xlink:href="#DejaVuSans-20"/>
       <use x="225.292969" xlink:href="#DejaVuSans-30"/>
       <use x="288.916016" xlink:href="#DejaVuSans-31"/>
       <use x="352.539062" xlink:href="#DejaVuSans-20"/>
       <use x="384.326172" xlink:href="#DejaVuSans-30"/>
       <use x="447.949219" xlink:href="#DejaVuSans-30"/>
       <use x="511.572266" xlink:href="#DejaVuSans-3a"/>
       <use x="545.263672" xlink:href="#DejaVuSans-30"/>
       <use x="608.886719" xlink:href="#DejaVuSans-30"/>
      </g>
     </g>
    </g>
    <g id="xtick_5">
     <g id="line2d_6">
      <g>
       <use style="stroke:#000000;stroke-width:0.8;" x="271.294005" xlink:href="#m72dab395ed" y="285.500464"/>
      </g>
     </g>
     <g id="text_5">
      <!-- Dec 01 03:00 -->
      <g transform="translate(212.012599 332.706685)rotate(-30)scale(0.1 -0.1)">
       <use xlink:href="#DejaVuSans-44"/>
       <use x="77.001953" xlink:href="#DejaVuSans-65"/>
       <use x="138.525391" xlink:href="#DejaVuSans-63"/>
       <use x="193.505859" xlink:href="#DejaVuSans-20"/>
       <use x="225.292969" xlink:href="#DejaVuSans-30"/>
       <use x="288.916016" xlink:href="#DejaVuSans-31"/>
       <use x="352.539062" xlink:href="#DejaVuSans-20"/>
       <use x="384.326172" xlink:href="#DejaVuSans-30"/>
       <use x="447.949219" xlink:href="#DejaVuSans-33"/>
       <use x="511.572266" xlink:href="#DejaVuSans-3a"/>
       <use x="545.263672" xlink:href="#DejaVuSans-30"/>
       <use x="608.886719" xlink:href="#DejaVuSans-30"/>
      </g>
     </g>
    </g>
    <g id="xtick_6">
     <g id="line2d_7">
      <g>
       <use style="stroke:#000000;stroke-width:0.8;" x="315.398288" xlink:href="#m72dab395ed" y="285.500464"/>
      </g>
     </g>
     <g id="text_6">
      <!-- Dec 01 06:00 -->
      <defs>
       <path d="M 33.015625 40.375 
Q 26.375 40.375 22.484375 35.828125 
Q 18.609375 31.296875 18.609375 23.390625 
Q 18.609375 15.53125 22.484375 10.953125 
Q 26.375 6.390625 33.015625 6.390625 
Q 39.65625 6.390625 43.53125 10.953125 
Q 47.40625 15.53125 47.40625 23.390625 
Q 47.40625 31.296875 43.53125 35.828125 
Q 39.65625 40.375 33.015625 40.375 
z
M 52.59375 71.296875 
L 52.59375 62.3125 
Q 48.875 64.0625 45.09375 64.984375 
Q 41.3125 65.921875 37.59375 65.921875 
Q 27.828125 65.921875 22.671875 59.328125 
Q 17.53125 52.734375 16.796875 39.40625 
Q 19.671875 43.65625 24.015625 45.921875 
Q 28.375 48.1875 33.59375 48.1875 
Q 44.578125 48.1875 50.953125 41.515625 
Q 57.328125 34.859375 57.328125 23.390625 
Q 57.328125 12.15625 50.6875 5.359375 
Q 44.046875 -1.421875 33.015625 -1.421875 
Q 20.359375 -1.421875 13.671875 8.265625 
Q 6.984375 17.96875 6.984375 36.375 
Q 6.984375 53.65625 15.1875 63.9375 
Q 23.390625 74.21875 37.203125 74.21875 
Q 40.921875 74.21875 44.703125 73.484375 
Q 48.484375 72.75 52.59375 71.296875 
z
" id="DejaVuSans-36"/>
      </defs>
      <g transform="translate(256.116883 332.706685)rotate(-30)scale(0.1 -0.1)">
       <use xlink:href="#DejaVuSans-44"/>
       <use x="77.001953" xlink:href="#DejaVuSans-65"/>
       <use x="138.525391" xlink:href="#DejaVuSans-63"/>
       <use x="193.505859" xlink:href="#DejaVuSans-20"/>
       <use x="225.292969" xlink:href="#DejaVuSans-30"/>
       <use x="288.916016" xlink:href="#DejaVuSans-31"/>
       <use x="352.539062" xlink:href="#DejaVuSans-20"/>
       <use x="384.326172" xlink:href="#DejaVuSans-30"/>
       <use x="447.949219" xlink:href="#DejaVuSans-36"/>
       <use x="511.572266" xlink:href="#DejaVuSans-3a"/>
       <use x="545.263672" xlink:href="#DejaVuSans-30"/>
       <use x="608.886719" xlink:href="#DejaVuSans-30"/>
      </g>
     </g>
    </g>
    <g id="xtick_7">
     <g id="line2d_8">
      <g>
       <use style="stroke:#000000;stroke-width:0.8;" x="359.502572" xlink:href="#m72dab395ed" y="285.500464"/>
      </g>
     </g>
     <g id="text_7">
      <!-- Dec 01 09:00 -->
      <defs>
       <path d="M 10.984375 1.515625 
L 10.984375 10.5 
Q 14.703125 8.734375 18.5 7.8125 
Q 22.3125 6.890625 25.984375 6.890625 
Q 35.75 6.890625 40.890625 13.453125 
Q 46.046875 20.015625 46.78125 33.40625 
Q 43.953125 29.203125 39.59375 26.953125 
Q 35.25 24.703125 29.984375 24.703125 
Q 19.046875 24.703125 12.671875 31.3125 
Q 6.296875 37.9375 6.296875 49.421875 
Q 6.296875 60.640625 12.9375 67.421875 
Q 19.578125 74.21875 30.609375 74.21875 
Q 43.265625 74.21875 49.921875 64.515625 
Q 56.59375 54.828125 56.59375 36.375 
Q 56.59375 19.140625 48.40625 8.859375 
Q 40.234375 -1.421875 26.421875 -1.421875 
Q 22.703125 -1.421875 18.890625 -0.6875 
Q 15.09375 0.046875 10.984375 1.515625 
z
M 30.609375 32.421875 
Q 37.25 32.421875 41.125 36.953125 
Q 45.015625 41.5 45.015625 49.421875 
Q 45.015625 57.28125 41.125 61.84375 
Q 37.25 66.40625 30.609375 66.40625 
Q 23.96875 66.40625 20.09375 61.84375 
Q 16.21875 57.28125 16.21875 49.421875 
Q 16.21875 41.5 20.09375 36.953125 
Q 23.96875 32.421875 30.609375 32.421875 
z
" id="DejaVuSans-39"/>
      </defs>
      <g transform="translate(300.221167 332.706685)rotate(-30)scale(0.1 -0.1)">
       <use xlink:href="#DejaVuSans-44"/>
       <use x="77.001953" xlink:href="#DejaVuSans-65"/>
       <use x="138.525391" xlink:href="#DejaVuSans-63"/>
       <use x="193.505859" xlink:href="#DejaVuSans-20"/>
       <use x="225.292969" xlink:href="#DejaVuSans-30"/>
       <use x="288.916016" xlink:href="#DejaVuSans-31"/>
       <use x="352.539062" xlink:href="#DejaVuSans-20"/>
       <use x="384.326172" xlink:href="#DejaVuSans-30"/>
       <use x="447.949219" xlink:href="#DejaVuSans-39"/>
       <use x="511.572266" xlink:href="#DejaVuSans-3a"/>
       <use x="545.263672" xlink:href="#DejaVuSans-30"/>
       <use x="608.886719" xlink:href="#DejaVuSans-30"/>
      </g>
     </g>
    </g>
    <g id="xtick_8">
     <g id="line2d_9">
      <g>
       <use style="stroke:#000000;stroke-width:0.8;" x="403.606856" xlink:href="#m72dab395ed" y="285.500464"/>
      </g>
     </g>
     <g id="text_8">
      <!-- Dec 01 12:00 -->
      <g transform="translate(344.32545 332.706685)rotate(-30)scale(0.1 -0.1)">
       <use xlink:href="#DejaVuSans-44"/>
       <use x="77.001953" xlink:href="#DejaVuSans-65"/>
       <use x="138.525391" xlink:href="#DejaVuSans-63"/>
       <use x="193.505859" xlink:href="#DejaVuSans-20"/>
       <use x="225.292969" xlink:href="#DejaVuSans-30"/>
       <use x="288.916016" xlink:href="#DejaVuSans-31"/>
       <use x="352.539062" xlink:href="#DejaVuSans-20"/>
       <use x="384.326172" xlink:href="#DejaVuSans-31"/>
       <use x="447.949219" xlink:href="#DejaVuSans-32"/>
       <use x="511.572266" xlink:href="#DejaVuSans-3a"/>
       <use x="545.263672" xlink:href="#DejaVuSans-30"/>
       <use x="608.886719" xlink:href="#DejaVuSans-30"/>
      </g>
     </g>
    </g>
   </g>
   <g id="matplotlib.axis_2">
    <g id="ytick_1">
     <g id="line2d_10">
      <defs>
       <path d="M 0 0 
L -3.5 0 
" id="mbfb1d14fe5" style="stroke:#000000;stroke-width:0.8;"/>
      </defs>
      <g>
       <use style="stroke:#000000;stroke-width:0.8;" x="57.26" xlink:href="#mbfb1d14fe5" y="273.128625"/>
      </g>
     </g>
     <g id="text_9">
      <!-- 0 -->
      <g transform="translate(43.8975 276.927843)scale(0.1 -0.1)">
       <use xlink:href="#DejaVuSans-30"/>
      </g>
     </g>
    </g>
    <g id="ytick_2">
     <g id="line2d_11">
      <g>
       <use style="stroke:#000000;stroke-width:0.8;" x="57.26" xlink:href="#mbfb1d14fe5" y="231.902902"/>
      </g>
     </g>
     <g id="text_10">
      <!-- 500 -->
      <g transform="translate(31.1725 235.702121)scale(0.1 -0.1)">
       <use xlink:href="#DejaVuSans-35"/>
       <use x="63.623047" xlink:href="#DejaVuSans-30"/>
       <use x="127.246094" xlink:href="#DejaVuSans-30"/>
      </g>
     </g>
    </g>
    <g id="ytick_3">
     <g id="line2d_12">
      <g>
       <use style="stroke:#000000;stroke-width:0.8;" x="57.26" xlink:href="#mbfb1d14fe5" y="190.67718"/>
      </g>
     </g>
     <g id="text_11">
      <!-- 1000 -->
      <g transform="translate(24.81 194.476399)scale(0.1 -0.1)">
       <use xlink:href="#DejaVuSans-31"/>
       <use x="63.623047" xlink:href="#DejaVuSans-30"/>
       <use x="127.246094" xlink:href="#DejaVuSans-30"/>
       <use x="190.869141" xlink:href="#DejaVuSans-30"/>
      </g>
     </g>
    </g>
    <g id="ytick_4">
     <g id="line2d_13">
      <g>
       <use style="stroke:#000000;stroke-width:0.8;" x="57.26" xlink:href="#mbfb1d14fe5" y="149.451458"/>
      </g>
     </g>
     <g id="text_12">
      <!-- 1500 -->
      <g transform="translate(24.81 153.250676)scale(0.1 -0.1)">
       <use xlink:href="#DejaVuSans-31"/>
       <use x="63.623047" xlink:href="#DejaVuSans-35"/>
       <use x="127.246094" xlink:href="#DejaVuSans-30"/>
       <use x="190.869141" xlink:href="#DejaVuSans-30"/>
      </g>
     </g>
    </g>
    <g id="ytick_5">
     <g id="line2d_14">
      <g>
       <use style="stroke:#000000;stroke-width:0.8;" x="57.26" xlink:href="#mbfb1d14fe5" y="108.225735"/>
      </g>
     </g>
     <g id="text_13">
      <!-- 2000 -->
      <g transform="translate(24.81 112.024954)scale(0.1 -0.1)">
       <use xlink:href="#DejaVuSans-32"/>
       <use x="63.623047" xlink:href="#DejaVuSans-30"/>
       <use x="127.246094" xlink:href="#DejaVuSans-30"/>
       <use x="190.869141" xlink:href="#DejaVuSans-30"/>
      </g>
     </g>
    </g>
    <g id="ytick_6">
     <g id="line2d_15">
      <g>
       <use style="stroke:#000000;stroke-width:0.8;" x="57.26" xlink:href="#mbfb1d14fe5" y="67.000013"/>
      </g>
     </g>
     <g id="text_14">
      <!-- 2500 -->
      <g transform="translate(24.81 70.799232)scale(0.1 -0.1)">
       <use xlink:href="#DejaVuSans-32"/>
       <use x="63.623047" xlink:href="#DejaVuSans-35"/>
       <use x="127.246094" xlink:href="#DejaVuSans-30"/>
       <use x="190.869141" xlink:href="#DejaVuSans-30"/>
      </g>
     </g>
    </g>
    <g id="ytick_7">
     <g id="line2d_16">
      <g>
       <use style="stroke:#000000;stroke-width:0.8;" x="57.26" xlink:href="#mbfb1d14fe5" y="25.774291"/>
      </g>
     </g>
     <g id="text_15">
      <!-- 3000 -->
      <g transform="translate(24.81 29.573509)scale(0.1 -0.1)">
       <use xlink:href="#DejaVuSans-33"/>
       <use x="63.623047" xlink:href="#DejaVuSans-30"/>
       <use x="127.246094" xlink:href="#DejaVuSans-30"/>
       <use x="190.869141" xlink:href="#DejaVuSans-30"/>
      </g>
     </g>
    </g>
    <g id="text_16">
     <!-- Team Score -->
     <defs>
      <path d="M -0.296875 72.90625 
L 61.375 72.90625 
L 61.375 64.59375 
L 35.5 64.59375 
L 35.5 0 
L 25.59375 0 
L 25.59375 64.59375 
L -0.296875 64.59375 
z
" id="DejaVuSans-54"/>
      <path d="M 34.28125 27.484375 
Q 23.390625 27.484375 19.1875 25 
Q 14.984375 22.515625 14.984375 16.5 
Q 14.984375 11.71875 18.140625 8.90625 
Q 21.296875 6.109375 26.703125 6.109375 
Q 34.1875 6.109375 38.703125 11.40625 
Q 43.21875 16.703125 43.21875 25.484375 
L 43.21875 27.484375 
z
M 52.203125 31.203125 
L 52.203125 0 
L 43.21875 0 
L 43.21875 8.296875 
Q 40.140625 3.328125 35.546875 0.953125 
Q 30.953125 -1.421875 24.3125 -1.421875 
Q 15.921875 -1.421875 10.953125 3.296875 
Q 6 8.015625 6 15.921875 
Q 6 25.140625 12.171875 29.828125 
Q 18.359375 34.515625 30.609375 34.515625 
L 43.21875 34.515625 
L 43.21875 35.40625 
Q 43.21875 41.609375 39.140625 45 
Q 35.0625 48.390625 27.6875 48.390625 
Q 23 48.390625 18.546875 47.265625 
Q 14.109375 46.140625 10.015625 43.890625 
L 10.015625 52.203125 
Q 14.9375 54.109375 19.578125 55.046875 
Q 24.21875 56 28.609375 56 
Q 40.484375 56 46.34375 49.84375 
Q 52.203125 43.703125 52.203125 31.203125 
z
" id="DejaVuSans-61"/>
      <path d="M 52 44.1875 
Q 55.375 50.25 60.0625 53.125 
Q 64.75 56 71.09375 56 
Q 79.640625 56 84.28125 50.015625 
Q 88.921875 44.046875 88.921875 33.015625 
L 88.921875 0 
L 79.890625 0 
L 79.890625 32.71875 
Q 79.890625 40.578125 77.09375 44.375 
Q 74.3125 48.1875 68.609375 48.1875 
Q 61.625 48.1875 57.5625 43.546875 
Q 53.515625 38.921875 53.515625 30.90625 
L 53.515625 0 
L 44.484375 0 
L 44.484375 32.71875 
Q 44.484375 40.625 41.703125 44.40625 
Q 38.921875 48.1875 33.109375 48.1875 
Q 26.21875 48.1875 22.15625 43.53125 
Q 18.109375 38.875 18.109375 30.90625 
L 18.109375 0 
L 9.078125 0 
L 9.078125 54.6875 
L 18.109375 54.6875 
L 18.109375 46.1875 
Q 21.1875 51.21875 25.484375 53.609375 
Q 29.78125 56 35.6875 56 
Q 41.65625 56 45.828125 52.96875 
Q 50 49.953125 52 44.1875 
z
" id="DejaVuSans-6d"/>
      <path d="M 53.515625 70.515625 
L 53.515625 60.890625 
Q 47.90625 63.578125 42.921875 64.890625 
Q 37.9375 66.21875 33.296875 66.21875 
Q 25.25 66.21875 20.875 63.09375 
Q 16.5 59.96875 16.5 54.203125 
Q 16.5 49.359375 19.40625 46.890625 
Q 22.3125 44.4375 30.421875 42.921875 
L 36.375 41.703125 
Q 47.40625 39.59375 52.65625 34.296875 
Q 57.90625 29 57.90625 20.125 
Q 57.90625 9.515625 50.796875 4.046875 
Q 43.703125 -1.421875 29.984375 -1.421875 
Q 24.8125 -1.421875 18.96875 -0.25 
Q 13.140625 0.921875 6.890625 3.21875 
L 6.890625 13.375 
Q 12.890625 10.015625 18.65625 8.296875 
Q 24.421875 6.59375 29.984375 6.59375 
Q 38.421875 6.59375 43.015625 9.90625 
Q 47.609375 13.234375 47.609375 19.390625 
Q 47.609375 24.75 44.3125 27.78125 
Q 41.015625 30.8125 33.5 32.328125 
L 27.484375 33.5 
Q 16.453125 35.6875 11.515625 40.375 
Q 6.59375 45.0625 6.59375 53.421875 
Q 6.59375 63.09375 13.40625 68.65625 
Q 20.21875 74.21875 32.171875 74.21875 
Q 37.3125 74.21875 42.625 73.28125 
Q 47.953125 72.359375 53.515625 70.515625 
z
" id="DejaVuSans-53"/>
      <path d="M 41.109375 46.296875 
Q 39.59375 47.171875 37.8125 47.578125 
Q 36.03125 48 33.890625 48 
Q 26.265625 48 22.1875 43.046875 
Q 18.109375 38.09375 18.109375 28.8125 
L 18.109375 0 
L 9.078125 0 
L 9.078125 54.6875 
L 18.109375 54.6875 
L 18.109375 46.1875 
Q 20.953125 51.171875 25.484375 53.578125 
Q 30.03125 56 36.53125 56 
Q 37.453125 56 38.578125 55.875 
Q 39.703125 55.765625 41.0625 55.515625 
z
" id="DejaVuSans-72"/>
     </defs>
     <g transform="translate(18.730313 179.164138)rotate(-90)scale(0.1 -0.1)">
      <use xlink:href="#DejaVuSans-54"/>
      <use x="60.818359" xlink:href="#DejaVuSans-65"/>
      <use x="122.341797" xlink:href="#DejaVuSans-61"/>
      <use x="183.621094" xlink:href="#DejaVuSans-6d"/>
      <use x="281.033203" xlink:href="#DejaVuSans-20"/>
      <use x="312.820312" xlink:href="#DejaVuSans-53"/>
      <use x="376.296875" xlink:href="#DejaVuSans-63"/>
      <use x="431.277344" xlink:href="#DejaVuSans-6f"/>
      <use x="492.458984" xlink:href="#DejaVuSans-72"/>
      <use x="533.541016" xlink:href="#DejaVuSans-65"/>
     </g>
    </g>
   </g>
   <g id="line2d_17">
    <path clip-path="url(#p696a06960a)" d="M 74.997273 273.128625 
L 76.528671 273.128625 
L 76.777779 238.499018 
L 76.859454 240.642755 
L 77.035054 240.642755 
L 77.141231 241.549721 
L 77.386255 242.374236 
L 77.463846 243.858362 
L 77.668032 244.517973 
L 77.749707 245.095133 
L 77.88447 245.672294 
L 78.374517 246.744162 
L 78.39902 247.238871 
L 78.550118 247.238871 
L 78.7053 248.145837 
L 78.909486 248.145837 
L 79.007496 248.970351 
L 79.146342 248.970351 
L 79.272938 249.382609 
L 79.566967 249.382609 
L 79.60372 249.794866 
L 80.171359 250.124672 
L 80.563397 250.124672 
L 81.298468 250.784283 
L 81.490403 251.114089 
L 81.62925 251.443895 
L 81.670087 251.691249 
L 82.127465 251.691249 
L 82.311233 252.268409 
L 82.364322 252.598215 
L 83.364835 252.598215 
L 83.564938 253.340278 
L 83.924306 253.587632 
L 83.965144 253.587632 
L 84.128493 253.834987 
L 84.65121 253.834987 
L 84.692048 254.082341 
L 85.57005 254.082341 
L 86.215279 254.57705 
L 86.235698 254.741953 
L 88.338819 254.741953 
L 88.951378 255.15421 
L 89.208653 255.15421 
L 90.119325 255.566467 
L 90.862564 255.566467 
L 90.980992 255.813821 
L 91.140257 255.813821 
L 91.446537 256.143627 
L 92.112185 256.143627 
L 92.144855 256.390981 
L 92.414381 256.390981 
L 92.528725 256.555884 
L 92.712493 256.555884 
L 93.161704 256.88569 
L 94.317399 256.88569 
L 94.533837 257.050593 
L 96.636958 257.050593 
L 96.698214 257.215496 
L 97.604802 257.545302 
L 97.653807 257.710205 
L 98.801335 257.710205 
L 99.156619 257.875107 
L 99.916193 257.875107 
L 100.381738 258.04001 
L 101.480262 258.04001 
L 101.77429 258.204913 
L 104.906511 258.287365 
L 106.915706 258.782073 
L 109.741647 258.864525 
L 109.949917 259.029428 
L 114.397099 259.029428 
L 117.182203 259.606588 
L 120.571699 259.689039 
L 120.902481 259.853942 
L 122.323619 259.936394 
L 123.115863 259.936394 
L 123.708004 260.101296 
L 127.844822 260.183748 
L 129.466063 260.431102 
L 130.188883 260.431102 
L 130.368567 260.596005 
L 131.90405 260.678457 
L 132.45127 261.008262 
L 133.758063 261.008262 
L 134.366539 261.173165 
L 138.907647 261.255617 
L 140.234859 261.502971 
L 145.413029 261.585422 
L 146.11543 261.750325 
L 146.932176 261.750325 
L 147.164949 261.915228 
L 147.610075 261.99768 
L 147.65908 262.080131 
L 149.966387 262.080131 
L 151.367107 224.729627 
L 152.833166 224.729627 
L 155.332409 211.290041 
L 158.950593 211.372493 
L 159.787758 211.537396 
L 165.848013 211.78475 
L 166.211465 211.867201 
L 167.812287 211.949653 
L 170.446293 212.197007 
L 170.695401 212.36191 
L 172.324809 212.609264 
L 172.439153 212.691716 
L 174.39526 212.774167 
L 174.615782 212.93907 
L 174.852638 213.103973 
L 177.102773 213.186424 
L 177.44989 213.351327 
L 179.84704 172.125605 
L 180.818967 172.125605 
L 181.864402 158.438665 
L 182.019584 158.521117 
L 182.591306 158.603568 
L 189.280456 159.015825 
L 191.832787 159.428082 
L 192.437179 160.912208 
L 196.823105 161.242014 
L 198.178903 161.406917 
L 199.269259 161.57182 
L 203.953298 161.57182 
L 204.410675 161.736723 
L 206.015581 161.984077 
L 208.47807 162.313883 
L 213.243783 162.396334 
L 213.684826 162.561237 
L 214.816019 162.72614 
L 215.579677 162.72614 
L 215.828784 162.891043 
L 216.102394 162.891043 
L 216.588358 163.138397 
L 218.552632 163.138397 
L 221.521504 164.375169 
L 233.776778 164.622524 
L 234.181067 164.704975 
L 235.932987 164.952329 
L 235.986075 165.034781 
L 238.228043 165.199684 
L 248.747732 165.529489 
L 249.79725 165.611941 
L 250.348554 165.776844 
L 251.786027 165.859295 
L 252.12906 166.024198 
L 256.776345 166.10665 
L 258.152562 167.26097 
L 261.047926 167.343421 
L 261.337871 167.425873 
L 289.723878 168.167936 
L 290.148586 169.157353 
L 299.332895 169.239804 
L 299.969957 169.322256 
L 306.957218 169.487159 
L 320.837817 170.14677 
L 323.312557 170.229222 
L 323.484074 171.136188 
L 326.26101 171.218639 
L 329.397315 171.301091 
L 335.000192 171.383542 
L 336.119134 172.208056 
L 336.788866 172.372959 
L 337.96498 172.537862 
L 338.728638 173.362377 
L 339.504546 173.52728 
L 343.232992 173.692182 
L 348.623515 173.939537 
L 349.815964 174.021988 
L 350.240672 174.6816 
L 352.290705 174.846503 
L 355.574024 174.846503 
L 355.880303 175.506114 
L 357.309609 175.588566 
L 360.6501 175.671017 
L 361.078892 175.83592 
L 373.509766 175.918371 
L 382.591981 176.165726 
L 383.273964 176.248177 
L 384.964628 176.41308 
L 386.667544 178.556818 
L 387.962086 178.721721 
L 392.960572 178.721721 
L 394.802334 137.495998 
L 403.741619 137.57845 
L 403.774288 137.660901 
L 404.550197 137.743353 
L 416.482856 137.825804 
L 417.883575 138.073158 
L 419.410891 138.073158 
L 420.754438 138.650318 
L 429.742727 138.650318 
L 429.742727 138.650318 
" style="fill:none;stroke:#d62728;stroke-linecap:square;stroke-width:1.5;"/>
   </g>
   <g id="patch_3">
    <path d="M 57.26 285.500464 
L 57.26 13.32 
" style="fill:none;stroke:#000000;stroke-linecap:square;stroke-linejoin:miter;stroke-width:0.8;"/>
   </g>
   <g id="patch_4">
    <path d="M 447.48 285.500464 
L 447.48 13.32 
" style="fill:none;stroke:#000000;stroke-linecap:square;stroke-linejoin:miter;stroke-width:0.8;"/>
   </g>
   <g id="patch_5">
    <path d="M 57.26 285.500464 
L 447.48 285.500464 
" style="fill:none;stroke:#000000;stroke-linecap:square;stroke-linejoin:miter;stroke-width:0.8;"/>
   </g>
   <g id="patch_6">
    <path d="M 57.26 13.32 
L 447.48 13.32 
" style="fill:none;stroke:#000000;stroke-linecap:square;stroke-linejoin:miter;stroke-width:0.8;"/>
   </g>
   <g id="line2d_18">
    <path clip-path="url(#p696a06960a)" d="M 74.997273 231.902902 
L 76.814533 231.902902 
L 76.859454 199.417033 
L 76.961547 203.292251 
L 77.141231 205.683343 
L 77.386255 206.507857 
L 77.463846 207.991983 
L 77.668032 208.651595 
L 77.88447 211.042687 
L 78.182582 211.619847 
L 78.7053 215.659968 
L 78.954407 218.62822 
L 79.146342 220.3597 
L 79.272938 221.349117 
L 79.566967 221.926278 
L 79.60372 222.338535 
L 80.171359 222.668341 
L 80.563397 223.245501 
L 81.024858 223.575306 
L 81.143286 224.070015 
L 81.21271 224.070015 
L 81.62925 226.04885 
L 81.670087 226.296204 
L 82.127465 226.296204 
L 82.311233 226.873364 
L 82.364322 227.20317 
L 82.75636 227.615427 
L 83.364835 227.615427 
L 83.564938 228.769747 
L 83.78546 229.017102 
L 83.965144 229.429359 
L 84.128493 229.676713 
L 84.65121 229.676713 
L 84.692048 229.924068 
L 85.010579 229.924068 
L 85.145342 230.336325 
L 85.259686 230.336325 
L 85.57005 231.078388 
L 86.215279 231.573097 
L 86.235698 231.737999 
L 87.305635 231.737999 
L 88.861536 232.480062 
L 88.951378 232.809868 
L 89.208653 232.809868 
L 89.992729 233.222125 
L 90.119325 233.881737 
L 90.862564 234.129091 
L 91.140257 234.706251 
L 92.112185 235.283412 
L 92.144855 235.530766 
L 92.414381 235.530766 
L 92.528725 235.695669 
L 92.712493 235.695669 
L 93.161704 236.025475 
L 94.109129 236.602635 
L 94.145883 236.849989 
L 94.317399 214.505648 
L 94.505251 214.67055 
L 94.533837 214.917905 
L 94.742107 215.247711 
L 95.509848 215.824871 
L 96.636958 216.154676 
L 96.698214 216.319579 
L 97.523127 216.649385 
L 97.653807 217.061642 
L 99.128033 217.968608 
L 99.156619 218.215963 
L 99.381224 218.545768 
L 100.32865 218.958026 
L 100.381738 219.20538 
L 101.075972 219.452734 
L 101.161731 219.700089 
L 102.399101 220.607054 
L 104.906511 220.93686 
L 105.572159 221.101763 
L 105.621164 221.349117 
L 106.915706 222.09118 
L 109.451702 222.668341 
L 109.49254 222.833243 
L 109.949917 223.080598 
L 110.194941 223.327952 
L 110.733994 223.575306 
L 112.935124 223.905112 
L 113.351665 224.152467 
L 113.404753 224.317369 
L 113.715117 224.482272 
L 114.397099 225.554141 
L 115.81007 225.966398 
L 116.777914 226.296204 
L 117.182203 226.461107 
L 118.154131 226.790913 
L 118.562504 226.955816 
L 119.963223 226.955816 
L 119.999977 227.120719 
L 120.571699 227.20317 
L 120.902481 227.368073 
L 121.809069 227.450524 
L 122.323619 228.110136 
L 123.115863 228.110136 
L 124.929039 228.852199 
L 126.946402 229.017102 
L 127.06483 229.182005 
L 127.844822 229.182005 
L 129.421142 229.429359 
L 129.466063 229.594262 
L 130.188883 229.676713 
L 130.368567 229.841616 
L 130.768773 229.841616 
L 130.944373 230.006519 
L 131.818291 230.253873 
L 131.90405 196.778587 
L 132.45127 197.273296 
L 134.366539 197.603101 
L 136.927038 198.180261 
L 139.536541 198.510067 
L 140.210357 198.67497 
L 140.234859 198.839873 
L 145.413029 199.334582 
L 147.610075 200.159096 
L 147.65908 200.241548 
L 151.367107 200.241548 
L 151.43653 200.40645 
L 152.559556 200.571353 
L 152.833166 201.560771 
L 155.332409 201.643222 
L 156.079731 162.561237 
L 158.950593 162.643689 
L 159.787758 162.808592 
L 162.65862 162.891043 
L 163.242594 163.055946 
L 165.553985 163.962912 
L 165.586655 164.127815 
L 166.211465 164.292718 
L 169.029239 164.622524 
L 170.564721 164.869878 
L 170.695401 164.952329 
L 172.324809 165.199684 
L 172.439153 165.282135 
L 174.546358 165.694392 
L 174.615782 166.518907 
L 175.097662 166.766261 
L 176.490214 166.848713 
L 176.567804 168.580193 
L 177.102773 168.580193 
L 177.44989 168.745096 
L 180.818967 168.745096 
L 184.0737 169.157353 
L 185.384577 170.641479 
L 188.516798 170.971285 
L 189.280456 171.795799 
L 193.307014 172.290508 
L 198.084978 172.620314 
L 198.178903 172.702765 
L 199.269259 172.867668 
L 204.410675 174.351794 
L 206.015581 174.599148 
L 208.47807 174.928954 
L 210.675117 176.165726 
L 213.407132 176.330629 
L 214.134036 176.495532 
L 216.102394 176.742886 
L 216.588358 176.99024 
L 218.552632 177.5674 
L 221.521504 142.937794 
L 233.776778 143.185148 
L 234.181067 143.267599 
L 235.932987 143.514954 
L 235.986075 143.597405 
L 238.228043 143.762308 
L 248.747732 144.092114 
L 249.79725 144.174565 
L 250.348554 144.339468 
L 251.786027 144.42192 
L 252.12906 144.586822 
L 256.776345 144.669274 
L 258.152562 145.823594 
L 261.047926 145.906046 
L 261.337871 145.988497 
L 267.471633 146.235851 
L 272.020909 147.390172 
L 273.058176 147.472623 
L 276.958138 148.049783 
L 278.146504 148.049783 
L 280.339467 148.214686 
L 288.380331 148.379589 
L 289.078649 149.451458 
L 289.723878 149.451458 
L 290.148586 150.440875 
L 296.188423 151.018035 
L 299.969957 151.182938 
L 306.957218 151.347841 
L 320.837817 152.007452 
L 322.401885 152.584613 
L 323.312557 152.584613 
L 323.484074 153.491578 
L 325.16657 153.491578 
L 325.342171 154.398544 
L 327.886335 154.563447 
L 335.000192 154.645899 
L 336.119134 155.470413 
L 336.788866 155.635316 
L 337.96498 155.800219 
L 338.728638 156.624733 
L 339.504546 156.789636 
L 343.232992 156.954539 
L 348.623515 157.201893 
L 349.815964 157.284345 
L 350.240672 157.943956 
L 351.555633 158.026408 
L 351.612806 158.521117 
L 352.290705 158.603568 
L 355.574024 158.603568 
L 355.880303 159.26318 
L 357.309609 159.345631 
L 360.6501 159.428082 
L 361.078892 159.592985 
L 361.867052 160.087694 
L 363.239185 160.170145 
L 378.871703 160.252597 
L 379.108559 160.664854 
L 380.631791 160.829757 
L 383.273964 160.912208 
L 384.964628 161.077111 
L 386.667544 121.995127 
L 387.962086 122.16003 
L 392.960572 122.572287 
L 394.802334 122.572287 
L 395.635415 122.984544 
L 398.54303 123.396801 
L 401.177036 123.479253 
L 404.550197 124.056413 
L 406.416462 124.056413 
L 409.932553 124.386219 
L 416.482856 124.46867 
L 417.883575 124.716024 
L 419.410891 124.716024 
L 420.754438 125.293184 
L 423.257764 125.62299 
L 424.923926 126.447505 
L 425.034187 127.272019 
L 429.742727 127.272019 
L 429.742727 127.272019 
" style="fill:none;stroke:#2ca02c;stroke-linecap:square;stroke-width:1.5;"/>
   </g>
   <g id="line2d_19">
    <path clip-path="url(#p696a06960a)" d="M 74.997273 273.128625 
L 76.859454 273.128625 
L 76.932961 234.04664 
L 77.035054 237.262246 
L 77.717037 237.262246 
L 77.749707 238.499018 
L 78.182582 238.499018 
L 78.39902 239.653338 
L 78.627709 240.642755 
L 78.7053 240.642755 
L 79.272938 245.095133 
L 79.60372 245.672294 
L 80.171359 245.672294 
L 80.563397 246.249454 
L 81.024858 246.249454 
L 81.143286 246.744162 
L 81.490403 246.744162 
L 81.523073 225.059432 
L 81.62925 226.04885 
L 81.670087 226.296204 
L 82.127465 226.296204 
L 82.311233 226.873364 
L 82.364322 227.20317 
L 82.75636 227.615427 
L 83.364835 227.615427 
L 83.564938 228.769747 
L 83.78546 229.017102 
L 83.965144 229.429359 
L 84.128493 229.676713 
L 84.65121 229.676713 
L 84.692048 229.924068 
L 85.010579 229.924068 
L 85.145342 230.336325 
L 85.259686 230.336325 
L 85.57005 231.078388 
L 86.215279 231.573097 
L 86.235698 231.737999 
L 87.305635 231.737999 
L 88.861536 232.480062 
L 88.951378 232.809868 
L 89.208653 232.809868 
L 89.992729 233.222125 
L 90.119325 233.881737 
L 90.862564 234.129091 
L 91.140257 234.706251 
L 92.112185 235.283412 
L 92.144855 235.530766 
L 92.414381 235.530766 
L 92.528725 235.695669 
L 92.712493 235.695669 
L 93.161704 236.025475 
L 94.109129 236.602635 
L 94.145883 236.849989 
L 94.317399 236.849989 
L 94.505251 237.014892 
L 94.533837 237.262246 
L 96.636958 237.262246 
L 96.698214 237.427149 
L 97.523127 237.756955 
L 97.653807 238.169212 
L 98.094849 238.169212 
L 98.315371 238.416566 
L 99.128033 238.828824 
L 99.156619 239.076178 
L 99.381224 239.076178 
L 100.381738 239.488435 
L 101.480262 239.488435 
L 101.77429 239.653338 
L 104.906511 239.73579 
L 107.789624 240.395401 
L 108.724799 240.395401 
L 109.451702 240.642755 
L 109.49254 240.807658 
L 109.949917 241.055013 
L 110.194941 241.302367 
L 110.733994 241.302367 
L 111.775345 241.46727 
L 111.96728 200.241548 
L 112.935124 200.241548 
L 113.351665 182.926744 
L 113.404753 183.091647 
L 113.715117 183.25655 
L 114.397099 184.328419 
L 115.81007 184.740676 
L 116.777914 185.070482 
L 117.182203 185.235385 
L 118.154131 185.56519 
L 118.562504 185.730093 
L 119.963223 185.730093 
L 119.999977 185.894996 
L 120.571699 185.977448 
L 120.902481 186.142351 
L 121.809069 186.224802 
L 122.323619 186.884414 
L 123.115863 186.884414 
L 124.929039 187.626477 
L 126.946402 187.791379 
L 127.06483 187.956282 
L 127.844822 187.956282 
L 129.421142 188.203637 
L 129.466063 188.36854 
L 130.188883 188.450991 
L 130.368567 188.615894 
L 130.768773 188.615894 
L 130.944373 188.780797 
L 131.90405 189.028151 
L 132.45127 189.52286 
L 134.366539 189.852666 
L 136.927038 190.429826 
L 139.536541 190.759631 
L 140.210357 190.924534 
L 140.234859 191.089437 
L 145.413029 191.584146 
L 147.610075 192.40866 
L 147.65908 192.491112 
L 151.367107 192.491112 
L 151.43653 192.656015 
L 152.833166 192.820918 
L 155.332409 192.903369 
L 156.079731 195.047107 
L 158.950593 195.129558 
L 159.787758 195.294461 
L 162.65862 195.376912 
L 163.242594 195.541815 
L 165.553985 195.541815 
L 165.586655 195.706718 
L 166.211465 195.871621 
L 169.029239 196.201427 
L 170.564721 196.448781 
L 170.695401 196.531233 
L 172.324809 196.778587 
L 172.439153 196.861038 
L 174.615782 197.273296 
L 175.097662 197.52065 
L 176.490214 197.603101 
L 176.567804 199.334582 
L 177.102773 199.334582 
L 177.44989 199.499485 
L 179.84704 199.499485 
L 180.818967 164.869878 
L 184.0737 165.282135 
L 185.384577 166.766261 
L 189.280456 167.096067 
L 193.307014 167.590776 
L 198.084978 167.920581 
L 198.178903 168.003033 
L 199.269259 168.167936 
L 201.43772 138.897673 
L 205.296845 139.804639 
L 208.47807 140.299347 
L 210.675117 141.536119 
L 213.407132 141.701022 
L 214.134036 141.865925 
L 216.102394 142.113279 
L 216.588358 142.360633 
L 218.552632 142.937794 
L 227.148884 143.020245 
L 234.181067 143.267599 
L 235.932987 143.514954 
L 235.986075 143.597405 
L 238.228043 143.762308 
L 248.747732 144.092114 
L 249.79725 144.174565 
L 250.348554 144.339468 
L 251.786027 144.42192 
L 252.12906 144.586822 
L 264.641609 144.916628 
L 265.307257 144.99908 
L 267.471633 145.081531 
L 272.020909 146.235851 
L 273.058176 146.318303 
L 276.958138 146.895463 
L 278.146504 146.895463 
L 280.339467 147.060366 
L 288.380331 147.225269 
L 289.078649 148.297137 
L 290.148586 148.297137 
L 296.188423 148.874298 
L 298.120027 148.956749 
L 299.332895 107.731027 
L 299.969957 107.813478 
L 306.957218 107.978381 
L 320.837817 108.637993 
L 322.401885 109.215153 
L 323.312557 110.369473 
L 325.16657 110.369473 
L 325.342171 111.276439 
L 327.886335 111.441342 
L 336.119134 111.523793 
L 336.788866 111.688696 
L 340.970605 112.100953 
L 350.240672 112.51321 
L 351.555633 112.595662 
L 351.612806 113.090371 
L 352.290705 113.172822 
L 360.449997 113.255273 
L 361.078892 113.502628 
L 361.867052 113.997336 
L 363.239185 114.079788 
L 377.442398 114.162239 
L 379.108559 116.718234 
L 380.631791 116.883137 
L 383.273964 116.965588 
L 387.962086 117.295394 
L 392.960572 117.707651 
L 394.802334 117.707651 
L 395.635415 118.119909 
L 398.54303 118.532166 
L 401.177036 118.614617 
L 404.550197 119.191778 
L 406.416462 120.181195 
L 409.932553 120.511001 
L 416.482856 120.593452 
L 417.883575 120.840806 
L 420.754438 120.840806 
L 423.257764 121.170612 
L 424.923926 121.995127 
L 425.034187 122.819641 
L 429.742727 122.819641 
L 429.742727 122.819641 
" style="fill:none;stroke:#ff7f0e;stroke-linecap:square;stroke-width:1.5;"/>
   </g>
   <g id="line2d_20">
    <path clip-path="url(#p696a06960a)" d="M 74.997273 273.128625 
L 77.717037 273.128625 
L 77.749707 238.499018 
L 78.182582 238.499018 
L 78.374517 239.653338 
L 78.39902 213.763585 
L 78.893151 217.391448 
L 79.007496 219.700089 
L 79.60372 222.338535 
L 80.171359 222.668341 
L 80.563397 223.245501 
L 81.024858 223.575306 
L 81.098365 224.070015 
L 81.143286 182.844293 
L 81.21271 184.98803 
L 81.62925 186.966865 
L 82.364322 191.336792 
L 82.62568 191.749049 
L 82.75636 194.140141 
L 83.209654 195.129558 
L 83.409756 196.696135 
L 83.564938 198.015359 
L 83.78546 198.262713 
L 83.924306 198.67497 
L 83.965144 199.499485 
L 84.626708 200.40645 
L 84.692048 201.313416 
L 85.120839 202.302834 
L 85.259686 203.457154 
L 85.525129 204.199217 
L 85.57005 204.693926 
L 86.158107 205.188634 
L 86.235698 205.848246 
L 88.061125 206.67276 
L 88.636931 207.332372 
L 88.861536 207.497275 
L 88.951378 207.82708 
L 89.208653 208.239338 
L 89.992729 208.651595 
L 90.119325 209.311207 
L 90.862564 209.558561 
L 91.140257 210.135721 
L 92.03051 210.712881 
L 92.144855 211.372493 
L 92.888094 212.526813 
L 93.990701 213.268876 
L 94.317399 214.505648 
L 94.505251 214.67055 
L 94.533837 214.917905 
L 94.742107 215.247711 
L 95.509848 215.824871 
L 96.636958 216.154676 
L 96.698214 216.319579 
L 97.523127 216.649385 
L 97.653807 217.061642 
L 99.128033 217.968608 
L 99.156619 218.215963 
L 99.381224 218.545768 
L 100.32865 218.958026 
L 100.381738 219.20538 
L 101.075972 219.452734 
L 101.161731 219.700089 
L 102.399101 220.607054 
L 104.906511 220.93686 
L 105.572159 221.101763 
L 105.621164 221.349117 
L 106.915706 222.09118 
L 109.451702 222.668341 
L 109.49254 222.833243 
L 109.949917 223.080598 
L 110.194941 223.327952 
L 110.733994 223.575306 
L 112.935124 223.905112 
L 113.351665 224.152467 
L 113.404753 224.317369 
L 113.715117 224.482272 
L 114.397099 225.554141 
L 115.81007 225.966398 
L 116.777914 226.296204 
L 117.182203 226.461107 
L 118.154131 226.790913 
L 118.562504 226.955816 
L 119.158729 189.605311 
L 119.563018 148.379589 
L 119.963223 148.379589 
L 119.999977 148.544492 
L 120.571699 148.626943 
L 120.902481 148.791846 
L 121.809069 148.874298 
L 122.323619 149.533909 
L 123.115863 149.533909 
L 123.708004 149.863715 
L 124.25114 151.347841 
L 124.712601 151.595195 
L 124.929039 151.760098 
L 126.946402 151.925001 
L 127.844822 153.326676 
L 129.421142 153.57403 
L 129.466063 153.738933 
L 130.188883 153.821384 
L 130.368567 153.986287 
L 130.768773 153.986287 
L 130.944373 154.15119 
L 131.818291 154.398544 
L 131.90405 155.552865 
L 132.45127 156.047573 
L 134.366539 156.377379 
L 136.927038 156.954539 
L 139.536541 157.284345 
L 140.210357 157.449248 
L 140.234859 157.614151 
L 145.413029 158.108859 
L 147.610075 158.933374 
L 147.65908 159.015825 
L 149.966387 119.933841 
L 151.43653 121.830224 
L 152.559556 121.995127 
L 152.833166 122.984544 
L 162.65862 123.396801 
L 163.242594 123.561704 
L 165.553985 124.46867 
L 165.586655 124.633573 
L 166.211465 124.798476 
L 169.029239 125.128282 
L 170.31153 125.293184 
L 170.446293 127.436922 
L 170.695401 127.601825 
L 172.324809 127.849179 
L 172.439153 127.931631 
L 174.546358 128.343888 
L 174.615782 129.168402 
L 175.097662 129.415757 
L 182.019584 129.910465 
L 182.591306 129.992917 
L 184.0737 130.075368 
L 185.384577 94.20899 
L 188.516798 94.538796 
L 189.280456 95.36331 
L 191.832787 95.775567 
L 192.437179 97.259693 
L 196.823105 97.589499 
L 198.178903 97.754402 
L 199.269259 97.919305 
L 204.410675 99.403431 
L 206.015581 99.650785 
L 208.47807 99.980591 
L 210.675117 101.217363 
L 213.407132 101.382265 
L 214.134036 101.547168 
L 215.828784 101.794523 
L 216.102394 103.526003 
L 216.588358 103.773357 
L 218.552632 104.350517 
L 221.521504 105.587289 
L 233.776778 105.834643 
L 234.181067 105.917095 
L 235.932987 106.164449 
L 235.986075 106.246901 
L 238.228043 106.411804 
L 248.747732 106.741609 
L 249.79725 106.824061 
L 250.348554 106.988964 
L 251.786027 107.071415 
L 252.12906 107.236318 
L 256.776345 107.318769 
L 258.152562 108.47309 
L 259.193913 109.957216 
L 267.471633 110.369473 
L 272.020909 111.523793 
L 273.058176 111.606245 
L 276.958138 112.183405 
L 278.146504 112.183405 
L 280.339467 112.348308 
L 288.380331 112.51321 
L 289.078649 113.585079 
L 289.723878 113.585079 
L 290.148586 114.574497 
L 296.188423 115.151657 
L 299.969957 115.31656 
L 306.957218 115.481462 
L 320.837817 116.141074 
L 322.401885 116.718234 
L 323.312557 83.242948 
L 323.484074 84.149914 
L 325.16657 84.149914 
L 325.342171 85.056879 
L 327.886335 85.221782 
L 335.000192 85.304234 
L 336.119134 86.128748 
L 336.788866 86.293651 
L 337.96498 86.458554 
L 338.728638 87.283068 
L 339.504546 87.447971 
L 343.232992 87.612874 
L 348.227393 87.777777 
L 348.370324 89.014549 
L 348.623515 89.097 
L 349.815964 89.179452 
L 350.240672 89.839063 
L 351.555633 89.921515 
L 351.612806 90.416223 
L 352.290705 90.498675 
L 355.574024 90.498675 
L 355.880303 91.158286 
L 357.309609 91.240738 
L 360.6501 91.323189 
L 361.078892 91.488092 
L 361.867052 91.982801 
L 363.239185 92.065252 
L 377.442398 92.147704 
L 378.871703 53.065719 
L 379.108559 53.477976 
L 380.631791 53.642879 
L 383.273964 53.72533 
L 387.962086 54.055136 
L 392.960572 54.467393 
L 394.802334 54.467393 
L 395.635415 54.879651 
L 398.54303 55.291908 
L 401.177036 55.374359 
L 404.550197 55.951519 
L 406.416462 56.940937 
L 409.932553 57.270743 
L 413.546654 25.691839 
L 417.038243 25.856742 
L 417.250597 26.681257 
L 417.883575 26.846159 
L 419.410891 26.846159 
L 420.754438 27.42332 
L 423.257764 27.753125 
L 424.923926 28.57764 
L 425.034187 29.402154 
L 429.742727 29.402154 
L 429.742727 29.402154 
" style="fill:none;stroke:#1f77b4;stroke-linecap:square;stroke-width:1.5;"/>
   </g>
   <g id="legend_1">
    <g id="patch_7">
     <path d="M 62.86 78.4325 
L 162.6575 78.4325 
Q 164.2575 78.4325 164.2575 76.8325 
L 164.2575 18.92 
Q 164.2575 17.32 162.6575 17.32 
L 62.86 17.32 
Q 61.26 17.32 61.26 18.92 
L 61.26 76.8325 
Q 61.26 78.4325 62.86 78.4325 
z
" style="fill:#ffffff;opacity:0.8;stroke:#cccccc;stroke-linejoin:miter;"/>
    </g>
    <g id="line2d_21">
     <path d="M 64.46 23.79875 
L 80.46 23.79875 
" style="fill:none;stroke:#1f77b4;stroke-linecap:square;stroke-width:1.5;"/>
    </g>
    <g id="line2d_22"/>
    <g id="text_17">
     <!-- Balsn -->
     <defs>
      <path d="M 19.671875 34.8125 
L 19.671875 8.109375 
L 35.5 8.109375 
Q 43.453125 8.109375 47.28125 11.40625 
Q 51.125 14.703125 51.125 21.484375 
Q 51.125 28.328125 47.28125 31.5625 
Q 43.453125 34.8125 35.5 34.8125 
z
M 19.671875 64.796875 
L 19.671875 42.828125 
L 34.28125 42.828125 
Q 41.5 42.828125 45.03125 45.53125 
Q 48.578125 48.25 48.578125 53.8125 
Q 48.578125 59.328125 45.03125 62.0625 
Q 41.5 64.796875 34.28125 64.796875 
z
M 9.8125 72.90625 
L 35.015625 72.90625 
Q 46.296875 72.90625 52.390625 68.21875 
Q 58.5 63.53125 58.5 54.890625 
Q 58.5 48.1875 55.375 44.234375 
Q 52.25 40.28125 46.1875 39.3125 
Q 53.46875 37.75 57.5 32.78125 
Q 61.53125 27.828125 61.53125 20.40625 
Q 61.53125 10.640625 54.890625 5.3125 
Q 48.25 0 35.984375 0 
L 9.8125 0 
z
" id="DejaVuSans-42"/>
      <path d="M 9.421875 75.984375 
L 18.40625 75.984375 
L 18.40625 0 
L 9.421875 0 
z
" id="DejaVuSans-6c"/>
      <path d="M 44.28125 53.078125 
L 44.28125 44.578125 
Q 40.484375 46.53125 36.375 47.5 
Q 32.28125 48.484375 27.875 48.484375 
Q 21.1875 48.484375 17.84375 46.4375 
Q 14.5 44.390625 14.5 40.28125 
Q 14.5 37.15625 16.890625 35.375 
Q 19.28125 33.59375 26.515625 31.984375 
L 29.59375 31.296875 
Q 39.15625 29.25 43.1875 25.515625 
Q 47.21875 21.78125 47.21875 15.09375 
Q 47.21875 7.46875 41.1875 3.015625 
Q 35.15625 -1.421875 24.609375 -1.421875 
Q 20.21875 -1.421875 15.453125 -0.5625 
Q 10.6875 0.296875 5.421875 2 
L 5.421875 11.28125 
Q 10.40625 8.6875 15.234375 7.390625 
Q 20.0625 6.109375 24.8125 6.109375 
Q 31.15625 6.109375 34.5625 8.28125 
Q 37.984375 10.453125 37.984375 14.40625 
Q 37.984375 18.0625 35.515625 20.015625 
Q 33.0625 21.96875 24.703125 23.78125 
L 21.578125 24.515625 
Q 13.234375 26.265625 9.515625 29.90625 
Q 5.8125 33.546875 5.8125 39.890625 
Q 5.8125 47.609375 11.28125 51.796875 
Q 16.75 56 26.8125 56 
Q 31.78125 56 36.171875 55.265625 
Q 40.578125 54.546875 44.28125 53.078125 
z
" id="DejaVuSans-73"/>
      <path d="M 54.890625 33.015625 
L 54.890625 0 
L 45.90625 0 
L 45.90625 32.71875 
Q 45.90625 40.484375 42.875 44.328125 
Q 39.84375 48.1875 33.796875 48.1875 
Q 26.515625 48.1875 22.3125 43.546875 
Q 18.109375 38.921875 18.109375 30.90625 
L 18.109375 0 
L 9.078125 0 
L 9.078125 54.6875 
L 18.109375 54.6875 
L 18.109375 46.1875 
Q 21.34375 51.125 25.703125 53.5625 
Q 30.078125 56 35.796875 56 
Q 45.21875 56 50.046875 50.171875 
Q 54.890625 44.34375 54.890625 33.015625 
z
" id="DejaVuSans-6e"/>
     </defs>
     <g transform="translate(86.86 26.59875)scale(0.08 -0.08)">
      <use xlink:href="#DejaVuSans-42"/>
      <use x="68.603516" xlink:href="#DejaVuSans-61"/>
      <use x="129.882812" xlink:href="#DejaVuSans-6c"/>
      <use x="157.666016" xlink:href="#DejaVuSans-73"/>
      <use x="209.765625" xlink:href="#DejaVuSans-6e"/>
     </g>
    </g>
    <g id="line2d_23">
     <path d="M 64.46 35.54125 
L 80.46 35.54125 
" style="fill:none;stroke:#ff7f0e;stroke-linecap:square;stroke-width:1.5;"/>
    </g>
    <g id="line2d_24"/>
    <g id="text_18">
     <!-- GooseCTF -->
     <defs>
      <path d="M 59.515625 10.40625 
L 59.515625 29.984375 
L 43.40625 29.984375 
L 43.40625 38.09375 
L 69.28125 38.09375 
L 69.28125 6.78125 
Q 63.578125 2.734375 56.6875 0.65625 
Q 49.8125 -1.421875 42 -1.421875 
Q 24.90625 -1.421875 15.25 8.5625 
Q 5.609375 18.5625 5.609375 36.375 
Q 5.609375 54.25 15.25 64.234375 
Q 24.90625 74.21875 42 74.21875 
Q 49.125 74.21875 55.546875 72.453125 
Q 61.96875 70.703125 67.390625 67.28125 
L 67.390625 56.78125 
Q 61.921875 61.421875 55.765625 63.765625 
Q 49.609375 66.109375 42.828125 66.109375 
Q 29.4375 66.109375 22.71875 58.640625 
Q 16.015625 51.171875 16.015625 36.375 
Q 16.015625 21.625 22.71875 14.15625 
Q 29.4375 6.6875 42.828125 6.6875 
Q 48.046875 6.6875 52.140625 7.59375 
Q 56.25 8.5 59.515625 10.40625 
z
" id="DejaVuSans-47"/>
      <path d="M 64.40625 67.28125 
L 64.40625 56.890625 
Q 59.421875 61.53125 53.78125 63.8125 
Q 48.140625 66.109375 41.796875 66.109375 
Q 29.296875 66.109375 22.65625 58.46875 
Q 16.015625 50.828125 16.015625 36.375 
Q 16.015625 21.96875 22.65625 14.328125 
Q 29.296875 6.6875 41.796875 6.6875 
Q 48.140625 6.6875 53.78125 8.984375 
Q 59.421875 11.28125 64.40625 15.921875 
L 64.40625 5.609375 
Q 59.234375 2.09375 53.4375 0.328125 
Q 47.65625 -1.421875 41.21875 -1.421875 
Q 24.65625 -1.421875 15.125 8.703125 
Q 5.609375 18.84375 5.609375 36.375 
Q 5.609375 53.953125 15.125 64.078125 
Q 24.65625 74.21875 41.21875 74.21875 
Q 47.75 74.21875 53.53125 72.484375 
Q 59.328125 70.75 64.40625 67.28125 
z
" id="DejaVuSans-43"/>
      <path d="M 9.8125 72.90625 
L 51.703125 72.90625 
L 51.703125 64.59375 
L 19.671875 64.59375 
L 19.671875 43.109375 
L 48.578125 43.109375 
L 48.578125 34.8125 
L 19.671875 34.8125 
L 19.671875 0 
L 9.8125 0 
z
" id="DejaVuSans-46"/>
     </defs>
     <g transform="translate(86.86 38.34125)scale(0.08 -0.08)">
      <use xlink:href="#DejaVuSans-47"/>
      <use x="77.490234" xlink:href="#DejaVuSans-6f"/>
      <use x="138.671875" xlink:href="#DejaVuSans-6f"/>
      <use x="199.853516" xlink:href="#DejaVuSans-73"/>
      <use x="251.953125" xlink:href="#DejaVuSans-65"/>
      <use x="313.476562" xlink:href="#DejaVuSans-43"/>
      <use x="383.300781" xlink:href="#DejaVuSans-54"/>
      <use x="444.384766" xlink:href="#DejaVuSans-46"/>
     </g>
    </g>
    <g id="line2d_25">
     <path d="M 64.46 47.28375 
L 80.46 47.28375 
" style="fill:none;stroke:#2ca02c;stroke-linecap:square;stroke-width:1.5;"/>
    </g>
    <g id="line2d_26"/>
    <g id="text_19">
     <!-- The Wind Warriors -->
     <defs>
      <path d="M 54.890625 33.015625 
L 54.890625 0 
L 45.90625 0 
L 45.90625 32.71875 
Q 45.90625 40.484375 42.875 44.328125 
Q 39.84375 48.1875 33.796875 48.1875 
Q 26.515625 48.1875 22.3125 43.546875 
Q 18.109375 38.921875 18.109375 30.90625 
L 18.109375 0 
L 9.078125 0 
L 9.078125 75.984375 
L 18.109375 75.984375 
L 18.109375 46.1875 
Q 21.34375 51.125 25.703125 53.5625 
Q 30.078125 56 35.796875 56 
Q 45.21875 56 50.046875 50.171875 
Q 54.890625 44.34375 54.890625 33.015625 
z
" id="DejaVuSans-68"/>
      <path d="M 3.328125 72.90625 
L 13.28125 72.90625 
L 28.609375 11.28125 
L 43.890625 72.90625 
L 54.984375 72.90625 
L 70.3125 11.28125 
L 85.59375 72.90625 
L 95.609375 72.90625 
L 77.296875 0 
L 64.890625 0 
L 49.515625 63.28125 
L 33.984375 0 
L 21.578125 0 
z
" id="DejaVuSans-57"/>
      <path d="M 9.421875 54.6875 
L 18.40625 54.6875 
L 18.40625 0 
L 9.421875 0 
z
M 9.421875 75.984375 
L 18.40625 75.984375 
L 18.40625 64.59375 
L 9.421875 64.59375 
z
" id="DejaVuSans-69"/>
      <path d="M 45.40625 46.390625 
L 45.40625 75.984375 
L 54.390625 75.984375 
L 54.390625 0 
L 45.40625 0 
L 45.40625 8.203125 
Q 42.578125 3.328125 38.25 0.953125 
Q 33.9375 -1.421875 27.875 -1.421875 
Q 17.96875 -1.421875 11.734375 6.484375 
Q 5.515625 14.40625 5.515625 27.296875 
Q 5.515625 40.1875 11.734375 48.09375 
Q 17.96875 56 27.875 56 
Q 33.9375 56 38.25 53.625 
Q 42.578125 51.265625 45.40625 46.390625 
z
M 14.796875 27.296875 
Q 14.796875 17.390625 18.875 11.75 
Q 22.953125 6.109375 30.078125 6.109375 
Q 37.203125 6.109375 41.296875 11.75 
Q 45.40625 17.390625 45.40625 27.296875 
Q 45.40625 37.203125 41.296875 42.84375 
Q 37.203125 48.484375 30.078125 48.484375 
Q 22.953125 48.484375 18.875 42.84375 
Q 14.796875 37.203125 14.796875 27.296875 
z
" id="DejaVuSans-64"/>
     </defs>
     <g transform="translate(86.86 50.08375)scale(0.08 -0.08)">
      <use xlink:href="#DejaVuSans-54"/>
      <use x="61.083984" xlink:href="#DejaVuSans-68"/>
      <use x="124.462891" xlink:href="#DejaVuSans-65"/>
      <use x="185.986328" xlink:href="#DejaVuSans-20"/>
      <use x="217.773438" xlink:href="#DejaVuSans-57"/>
      <use x="316.619141" xlink:href="#DejaVuSans-69"/>
      <use x="344.402344" xlink:href="#DejaVuSans-6e"/>
      <use x="407.78125" xlink:href="#DejaVuSans-64"/>
      <use x="471.257812" xlink:href="#DejaVuSans-20"/>
      <use x="503.044922" xlink:href="#DejaVuSans-57"/>
      <use x="601.828125" xlink:href="#DejaVuSans-61"/>
      <use x="663.107422" xlink:href="#DejaVuSans-72"/>
      <use x="704.205078" xlink:href="#DejaVuSans-72"/>
      <use x="745.318359" xlink:href="#DejaVuSans-69"/>
      <use x="773.101562" xlink:href="#DejaVuSans-6f"/>
      <use x="834.283203" xlink:href="#DejaVuSans-72"/>
      <use x="875.396484" xlink:href="#DejaVuSans-73"/>
     </g>
    </g>
    <g id="line2d_27">
     <path d="M 64.46 59.02625 
L 80.46 59.02625 
" style="fill:none;stroke:#d62728;stroke-linecap:square;stroke-width:1.5;"/>
    </g>
    <g id="line2d_28"/>
    <g id="text_20">
     <!-- Bushwhackers -->
     <defs>
      <path d="M 8.5 21.578125 
L 8.5 54.6875 
L 17.484375 54.6875 
L 17.484375 21.921875 
Q 17.484375 14.15625 20.5 10.265625 
Q 23.53125 6.390625 29.59375 6.390625 
Q 36.859375 6.390625 41.078125 11.03125 
Q 45.3125 15.671875 45.3125 23.6875 
L 45.3125 54.6875 
L 54.296875 54.6875 
L 54.296875 0 
L 45.3125 0 
L 45.3125 8.40625 
Q 42.046875 3.421875 37.71875 1 
Q 33.40625 -1.421875 27.6875 -1.421875 
Q 18.265625 -1.421875 13.375 4.4375 
Q 8.5 10.296875 8.5 21.578125 
z
M 31.109375 56 
z
" id="DejaVuSans-75"/>
      <path d="M 4.203125 54.6875 
L 13.1875 54.6875 
L 24.421875 12.015625 
L 35.59375 54.6875 
L 46.1875 54.6875 
L 57.421875 12.015625 
L 68.609375 54.6875 
L 77.59375 54.6875 
L 63.28125 0 
L 52.6875 0 
L 40.921875 44.828125 
L 29.109375 0 
L 18.5 0 
z
" id="DejaVuSans-77"/>
      <path d="M 9.078125 75.984375 
L 18.109375 75.984375 
L 18.109375 31.109375 
L 44.921875 54.6875 
L 56.390625 54.6875 
L 27.390625 29.109375 
L 57.625 0 
L 45.90625 0 
L 18.109375 26.703125 
L 18.109375 0 
L 9.078125 0 
z
" id="DejaVuSans-6b"/>
     </defs>
     <g transform="translate(86.86 61.82625)scale(0.08 -0.08)">
      <use xlink:href="#DejaVuSans-42"/>
      <use x="68.603516" xlink:href="#DejaVuSans-75"/>
      <use x="131.982422" xlink:href="#DejaVuSans-73"/>
      <use x="184.082031" xlink:href="#DejaVuSans-68"/>
      <use x="247.460938" xlink:href="#DejaVuSans-77"/>
      <use x="329.248047" xlink:href="#DejaVuSans-68"/>
      <use x="392.626953" xlink:href="#DejaVuSans-61"/>
      <use x="453.90625" xlink:href="#DejaVuSans-63"/>
      <use x="508.886719" xlink:href="#DejaVuSans-6b"/>
      <use x="566.75" xlink:href="#DejaVuSans-65"/>
      <use x="628.273438" xlink:href="#DejaVuSans-72"/>
      <use x="669.386719" xlink:href="#DejaVuSans-73"/>
     </g>
    </g>
    <g id="line2d_29">
     <path d="M 64.46 70.76875 
L 80.46 70.76875 
" style="fill:none;stroke:#9467bd;stroke-linecap:square;stroke-width:1.5;"/>
    </g>
    <g id="line2d_30"/>
    <g id="text_21">
     <!-- TenDollar -->
     <g transform="translate(86.86 73.56875)scale(0.08 -0.08)">
      <use xlink:href="#DejaVuSans-54"/>
      <use x="60.818359" xlink:href="#DejaVuSans-65"/>
      <use x="122.341797" xlink:href="#DejaVuSans-6e"/>
      <use x="185.720703" xlink:href="#DejaVuSans-44"/>
      <use x="262.722656" xlink:href="#DejaVuSans-6f"/>
      <use x="323.904297" xlink:href="#DejaVuSans-6c"/>
      <use x="351.6875" xlink:href="#DejaVuSans-6c"/>
      <use x="379.470703" xlink:href="#DejaVuSans-61"/>
      <use x="440.75" xlink:href="#DejaVuSans-72"/>
     </g>
    </g>
   </g>
  </g>
 </g>
 <defs>
  <clipPath id="p696a06960a">
   <rect height="272.180464" width="390.22" x="57.26" y="13.32"/>
  </clipPath>
 </defs>
</svg>
